<svg class="icon" style="width: 1em;height: 1em;vertical-align: middle;fill: currentColor;overflow: hidden;" viewBox="0 0 1024 1024" version="1.1" xmlns="http://www.w3.org/2000/svg" p-id="3974"><path d="M512 64C264.6 64 64 264.6 64 512s200.6 448 448 448 448-200.6 448-448S759.4 64 512 64z m-149.5 94.2c7.2-3 14.5-5.9 21.8-8.4-24.8 36.1-45.7 74.4-62.6 114.5-20.5-13.2-39.7-28.5-57.2-45.8 29.5-25.1 62.4-45.3 98-60.3zM158.2 362.5c15.3-36.1 35.8-69.3 61.1-99 24.3 24.1 51.4 44.9 80.4 62.2-15.1 49.8-24.2 101.5-26.8 154.3H129.3c3.3-40.6 13-79.9 28.9-117.5z m0 299c-15.9-37.5-25.5-76.9-28.8-117.5h143.5c2.6 52.8 11.7 104.6 26.8 154.3-29 17.2-56 38.1-80.3 62.2-25.5-29.8-46-63-61.2-99z m204.3 204.3c-35.7-15.1-68.5-35.3-98-60.2 17.5-17.3 36.7-32.7 57.2-45.8 16.8 40 37.8 78.4 62.6 114.4-7.3-2.5-14.6-5.3-21.8-8.4zM480 893c-43-48.7-77.1-103.8-101.2-162.8C410.9 717 445 708.7 480 705.5V893z m0-251.8c-42.2 3.3-83.4 12.9-122.1 28.4-11.5-40.7-18.6-82.8-21-125.6H480v97.2z m0-161.2H336.9c2.4-42.8 9.4-84.9 21-125.6 38.7 15.5 79.9 25.1 122.1 28.3V480z m0-161.5c-35-3.2-69.1-11.6-101.2-24.7C403 234.8 437 179.7 480 131v187.5z m385.8 44c15.9 37.5 25.5 76.9 28.8 117.5H751.2c-2.6-52.8-11.7-104.6-26.8-154.3 29-17.2 56-38.1 80.3-62.2 25.4 29.8 45.9 63 61.1 99zM661.5 158.2c35.7 15.1 68.5 35.3 98 60.2-17.5 17.3-36.7 32.7-57.2 45.8-16.8-40-37.8-78.4-62.6-114.5 7.3 2.6 14.6 5.4 21.8 8.5zM544 131c43 48.8 77.1 103.8 101.3 162.8-32.1 13.1-66.2 21.5-101.3 24.7V131z m0 251.8c42.3-3.2 83.4-12.9 122.2-28.3 11.5 40.7 18.6 82.7 20.9 125.6H544v-97.3z m0 161.2h143.1c-2.4 42.8-9.4 84.9-20.9 125.5-39.1-15.7-80-25.1-122.2-28.3V544z m0 161.4c34.9 3.1 68.9 11.4 101.3 24.7C621.1 789.2 587.1 844.2 544 893V705.4z m117.5 160.4c-7.2 3-14.5 5.9-21.8 8.4 24.8-36.1 45.8-74.4 62.6-114.5 20.6 13.2 39.7 28.5 57.2 45.9-29.5 25-62.4 45.2-98 60.2z m204.3-204.3c-15.3 36.1-35.8 69.3-61.1 99-24.2-24.1-51.1-44.9-80.3-62.2 15.1-49.7 24.1-101.5 26.7-154.2h143.5c-3.2 40.5-12.9 79.8-28.8 117.4z" fill="#1875F0" p-id="3975"></path></svg>
